# xmcd
#
# Track frame offsets:
#	150
#	18145
#	36327
#	53969
#	71609
#	87649
#	103858
#	128325
#	152792
#	172960
#	193282
#	219749
#	246389
#	270554
#	294719
#	319610
#
# Disc length: 4595 seconds
# Revision: 0
# Processed by: cddbd v1.5.2PL0 Copyright (c) Steve Scherf et al.
# Submitted via: dBpowerAMP V12.0
#
DISCID=ee11f110
DTITLE=Rory Gallagher - Play Guitar With Rory Gallagher
DYEAR=2011
DGENRE=Blues
TTITLE0=Bad Penny
TTITLE1=Big Guns
TTITLE2=Bought and Sold
TTITLE3=Calling Card
TTITLE4=Continental Op
TTITLE5=Crest of a Wave
TTITLE6=Do You Read Me
TTITLE7=Edged In Blue
TTITLE8=I take what I want
TTITLE9=In Your Town
TTITLE10=Moonchild
TTITLE11=Shadow Play
TTITLE12=Signals
TTITLE13=Tatoo'd Lady
TTITLE14=They don't mke them like you anymore
TTITLE15=Who's that coming
EXTD=
EXTT0=
EXTT1=
EXTT2=
EXTT3=
EXTT4=
EXTT5=
EXTT6=
EXTT7=
EXTT8=
EXTT9=
EXTT10=
EXTT11=
EXTT12=
EXTT13=
EXTT14=
EXTT15=
PLAYORDER=
